<?xml version="1.0" standalone="no"?>
<!DOCTYPE svg PUBLIC "-//W3C//DTD SVG 20010904//EN"
 "http://www.w3.org/TR/2001/REC-SVG-20010904/DTD/svg10.dtd">
<svg version="1.0" xmlns="http://www.w3.org/2000/svg"
 width="240.000000pt" height="240.000000pt" viewBox="0 0 240.000000 240.000000"
 preserveAspectRatio="xMidYMid meet">
<metadata>
Created by potrace 1.11, written by Peter Selinger 2001-2013
</metadata>
<g transform="translate(0.000000,240.000000) scale(0.100000,-0.100000)"
fill="#000000" stroke="none">
<path d="M835 2125 c-112 -18 -320 -99 -362 -140 -7 -7 -29 -23 -50 -36 -21
-13 -55 -37 -76 -55 -37 -31 -43 -33 -145 -38 -59 -3 -128 -8 -155 -12 l-47
-6 0 -919 0 -919 1183 2 1182 3 1 45 c1 25 -5 74 -13 108 -8 35 -12 70 -9 79
8 20 -10 96 -36 152 -12 25 -22 61 -23 80 -1 22 -10 39 -24 50 -14 11 -20 23
-16 33 8 20 -29 104 -50 112 -8 3 -15 11 -15 17 0 7 -6 20 -13 28 -21 25 -36
146 -31 251 10 200 4 318 -17 333 -9 7 -26 35 -38 62 l-23 50 -18 -35 c-21
-40 -63 -80 -85 -80 -21 0 -70 51 -94 99 -12 22 -47 64 -78 93 -30 29 -65 64
-77 76 -11 13 -38 41 -58 62 -21 21 -38 41 -38 44 0 3 15 6 34 6 38 0 103 -44
159 -106 38 -43 101 -149 111 -187 7 -29 32 -35 67 -17 42 23 63 108 37 150
-10 16 -9 23 10 43 18 19 22 35 22 90 0 37 -4 67 -10 67 -5 0 -21 24 -35 54
-39 82 -100 142 -155 151 -49 8 -90 30 -69 37 23 8 -2 28 -41 34 -22 4 -37 10
-35 15 6 9 -72 58 -102 64 -10 2 -31 9 -48 15 -43 18 -167 41 -265 50 -127 12
-364 9 -455 -5z m-1 -511 c20 -8 21 -34 2 -34 -26 0 -56 -50 -56 -93 0 -31 7
-48 27 -69 46 -48 93 -33 126 40 l22 47 3 -45 c3 -40 0 -48 -32 -77 -40 -37
-58 -40 -109 -18 -54 22 -81 68 -82 135 0 85 43 135 99 114z m903 -176 c0 -7
2 -20 4 -28 5 -19 -37 -26 -57 -10 -22 19 -16 38 14 43 15 2 30 5 33 6 3 0 6
-5 6 -11z m253 -227 c12 -45 12 -51 0 -51 -5 0 -10 8 -10 18 0 9 -7 30 -15 46
-19 36 -19 52 0 36 8 -7 19 -29 25 -49z"/>
</g>
</svg>
